<svg xmlns="http://www.w3.org/2000/svg" xmlns:svgjs="http://svgjs.com/svgjs" xmlns:xlink="http://www.w3.org/1999/xlink" width="288" height="288"><svg xmlns="http://www.w3.org/2000/svg" width="288" height="288" enable-background="new 0 0 512 512" viewBox="0 0 512 512"><rect width="25.982" height="135.226" x="125.971" y="92.784" fill="#f9a610" class="colorfbce4f svgShape"/><rect width="25.98" height="135.224" x="64.692" y="202.084" fill="#f9a610" class="colorfbce4f svgShape" transform="rotate(65.001 77.686 269.697)"/><rect width="25.981" height="135.224" x="187.231" y="202.066" fill="#f9a610" class="colorfbce4f svgShape" transform="rotate(114.999 200.224 269.68)"/><circle cx="138.964" cy="243.925" r="29.366" fill="#fff" class="colorfff svgShape"/><rect width="35.513" height="188.563" x="121.202" y="315.608" fill="#f9a610" class="colorb4bac0 svgShape"/><rect width="25.981" height="135.226" x="360.055" y="7.827" fill="#f9a610" class="colorfbce4f svgShape"/><rect width="25.981" height="135.224" x="298.782" y="117.121" fill="#f9a610" class="colorfbce4f svgShape" transform="rotate(65.001 311.777 184.73)"/><rect width="25.981" height="135.224" x="421.316" y="117.113" fill="#f9a610" class="colorfbce4f svgShape" transform="rotate(114.999 434.31 184.724)"/><circle cx="373.037" cy="158.957" r="29.366" fill="#fff" class="colorfff svgShape"/><rect width="35.513" height="188.563" x="355.286" y="230.64" fill="#f9a610" class="colorb4bac0 svgShape"/><path fill="#f9a610" d="M138.961,206.737c-1.753,0-3.475,0.13-5.164,0.366V100.615h10.327v101.216h15.654V84.961h-41.634v128.164
	c-7.491,5.079-13.033,12.818-15.273,21.848L0.516,282.702l17.595,37.735l89.804-41.875l-6.616-14.187l-75.614,35.26l-4.365-9.36
	l81.42-37.966c3.813,16.479,18.601,28.805,36.221,28.805c17.623,0,32.41-12.325,36.223-28.805l81.42,37.966l-4.365,9.361
	l-75.616-35.261l-6.616,14.187l89.805,41.875l17.595-37.734l-102.354-47.729C171.034,218.778,156.38,206.737,138.961,206.737z
	 M138.961,265.458c-11.874,0-21.533-9.659-21.533-21.533c0-6.303,2.738-11.965,7.069-15.906h9.299v-4.976
	c1.658-0.41,3.381-0.652,5.164-0.652c11.874,0,21.534,9.66,21.534,21.534S150.833,265.458,138.961,265.458z" class="color000 svgShape"/><path fill="#f9a610" d="M108.712 185.726l-7.232-13.884c-24.936 12.989-41.188 37.429-43.474 65.376l15.6 1.277C75.453 215.942 88.576 196.215 108.712 185.726zM204.314 238.497l15.6-1.276c-2.284-27.949-18.539-52.391-43.478-65.38l-7.232 13.884C189.345 196.214 202.469 215.941 204.314 238.497z" class="color000 svgShape"/><polygon fill="#f9a610" points="164.542 336.49 148.888 336.49 148.888 496.346 84.846 496.346 84.846 512 193.074 512 193.074 496.346 164.542 496.346" class="color000 svgShape"/><rect width="15.654" height="141.686" x="113.375" y="336.49" fill="#f9a610" class="color000 svgShape"/><path fill="#f9a610" d="M190.901 306.379l-10.015-12.03c-11.737 9.77-26.627 15.151-41.927 15.151-15.198 0-30.01-5.317-41.708-14.971l-9.963 12.073c14.496 11.962 32.846 18.551 51.671 18.551C157.912 325.151 176.357 318.485 190.901 306.379zM409.133 150.013c-4.018-16.195-18.672-28.237-36.092-28.237-1.753 0-3.475.13-5.164.366V15.654h10.327V116.87h15.654V0h-41.634v128.163c-7.491 5.079-13.034 12.819-15.274 21.848l-102.354 47.728 17.595 37.735 89.804-41.875-6.616-14.187-75.615 35.26-4.365-9.36 81.42-37.966c3.813 16.48 18.601 28.805 36.222 28.805s32.41-12.325 36.222-28.805l81.42 37.966-4.366 9.361-75.615-35.26-6.616 14.187 89.804 41.875 17.596-37.734L409.133 150.013zM373.041 180.496c-11.874 0-21.534-9.66-21.534-21.534 0-6.303 2.739-11.965 7.07-15.906h9.3v-4.976c1.658-.41 3.381-.652 5.164-.652 11.874 0 21.534 9.66 21.534 21.534C394.576 170.836 384.915 180.496 373.041 180.496z" class="color000 svgShape"/><path fill="#f9a610" d="M342.794 100.764l-7.232-13.883c-24.936 12.99-41.189 37.43-43.474 65.377l15.6 1.276C309.534 130.982 322.657 111.254 342.794 100.764zM438.395 153.536l15.6-1.276c-2.285-27.949-18.54-52.391-43.478-65.381l-7.232 13.884C423.425 111.252 436.55 130.981 438.395 153.536z" class="color000 svgShape"/><polygon fill="#f9a610" points="398.623 251.528 382.969 251.528 382.969 411.385 318.928 411.385 318.928 427.039 427.156 427.039 427.156 411.385 398.623 411.385" class="color000 svgShape"/><rect width="15.654" height="141.686" x="347.459" y="251.532" fill="#f9a610" class="color000 svgShape"/><path fill="#f9a610" d="M424.982,221.416l-10.016-12.03c-11.736,9.77-26.625,15.152-41.924,15.152c-15.198,0-30.01-5.317-41.709-14.971
	l-9.963,12.073c14.495,11.962,32.846,18.552,51.672,18.552C391.993,240.191,410.439,233.524,424.982,221.416z" class="color000 svgShape"/></svg></svg>