<?xml version="1.0" encoding="iso-8859-1"?>
<!-- Generator: Adobe Illustrator 19.0.0, SVG Export Plug-In . SVG Version: 6.00 Build 0)  -->
<svg version="1.1" id="Layer_1" xmlns="http://www.w3.org/2000/svg" xmlns:xlink="http://www.w3.org/1999/xlink" x="0px" y="0px"
	 viewBox="0 0 512 512" style="enable-background:new 0 0 512 512;" xml:space="preserve">
<g>
	<rect x="125.971" y="92.784" style="fill:#FBCE4F;" width="25.982" height="135.226"/>
	
		<rect x="64.692" y="202.084" transform="matrix(0.4226 0.9063 -0.9063 0.4226 289.2819 85.3165)" style="fill:#FBCE4F;" width="25.98" height="135.224"/>
	
		<rect x="187.231" y="202.066" transform="matrix(-0.4226 0.9063 -0.9063 -0.4226 529.2488 202.1824)" style="fill:#FBCE4F;" width="25.981" height="135.224"/>
</g>
<circle style="fill:#FFFFFF;" cx="138.964" cy="243.925" r="29.366"/>
<rect x="121.202" y="315.608" style="fill:#B4BAC0;" width="35.513" height="188.563"/>
<g>
	<rect x="360.055" y="7.827" style="fill:#FBCE4F;" width="25.981" height="135.226"/>
	
		<rect x="298.782" y="117.121" transform="matrix(0.4226 0.9063 -0.9063 0.4226 347.4415 -175.8996)" style="fill:#FBCE4F;" width="25.981" height="135.224"/>
	
		<rect x="421.316" y="117.113" transform="matrix(-0.4226 0.9063 -0.9063 -0.4226 785.2661 -130.8273)" style="fill:#FBCE4F;" width="25.981" height="135.224"/>
</g>
<circle style="fill:#FFFFFF;" cx="373.037" cy="158.957" r="29.366"/>
<rect x="355.286" y="230.64" style="fill:#B4BAC0;" width="35.513" height="188.563"/>
<path d="M138.961,206.737c-1.753,0-3.475,0.13-5.164,0.366V100.615h10.327v101.216h15.654V84.961h-41.634v128.164
	c-7.491,5.079-13.033,12.818-15.273,21.848L0.516,282.702l17.595,37.735l89.804-41.875l-6.616-14.187l-75.614,35.26l-4.365-9.36
	l81.42-37.966c3.813,16.479,18.601,28.805,36.221,28.805c17.623,0,32.41-12.325,36.223-28.805l81.42,37.966l-4.365,9.361
	l-75.616-35.261l-6.616,14.187l89.805,41.875l17.595-37.734l-102.354-47.729C171.034,218.778,156.38,206.737,138.961,206.737z
	 M138.961,265.458c-11.874,0-21.533-9.659-21.533-21.533c0-6.303,2.738-11.965,7.069-15.906h9.299v-4.976
	c1.658-0.41,3.381-0.652,5.164-0.652c11.874,0,21.534,9.66,21.534,21.534S150.833,265.458,138.961,265.458z"/>
<path d="M108.712,185.726l-7.232-13.884c-24.936,12.989-41.188,37.429-43.474,65.376l15.6,1.277
	C75.453,215.942,88.576,196.215,108.712,185.726z"/>
<path d="M204.314,238.497l15.6-1.276c-2.284-27.949-18.539-52.391-43.478-65.38l-7.232,13.884
	C189.345,196.214,202.469,215.941,204.314,238.497z"/>
<polygon points="164.542,336.49 148.888,336.49 148.888,496.346 84.846,496.346 84.846,512 193.074,512 193.074,496.346 
	164.542,496.346 "/>
<rect x="113.375" y="336.49" width="15.654" height="141.686"/>
<path d="M190.901,306.379l-10.015-12.03c-11.737,9.77-26.627,15.151-41.927,15.151c-15.198,0-30.01-5.317-41.708-14.971
	l-9.963,12.073c14.496,11.962,32.846,18.551,51.671,18.551C157.912,325.151,176.357,318.485,190.901,306.379z"/>
<path d="M409.133,150.013c-4.018-16.195-18.672-28.237-36.092-28.237c-1.753,0-3.475,0.13-5.164,0.366V15.654h10.327V116.87h15.654
	V0h-41.634v128.163c-7.491,5.079-13.034,12.819-15.274,21.848l-102.354,47.728l17.595,37.735l89.804-41.875l-6.616-14.187
	l-75.615,35.26l-4.365-9.36l81.42-37.966c3.813,16.48,18.601,28.805,36.222,28.805s32.41-12.325,36.222-28.805l81.42,37.966
	l-4.366,9.361l-75.615-35.26l-6.616,14.187l89.804,41.875l17.596-37.734L409.133,150.013z M373.041,180.496
	c-11.874,0-21.534-9.66-21.534-21.534c0-6.303,2.739-11.965,7.07-15.906h9.3v-4.976c1.658-0.41,3.381-0.652,5.164-0.652
	c11.874,0,21.534,9.66,21.534,21.534C394.576,170.836,384.915,180.496,373.041,180.496z"/>
<path d="M342.794,100.764l-7.232-13.883c-24.936,12.99-41.189,37.43-43.474,65.377l15.6,1.276
	C309.534,130.982,322.657,111.254,342.794,100.764z"/>
<path d="M438.395,153.536l15.6-1.276c-2.285-27.949-18.54-52.391-43.478-65.381l-7.232,13.884
	C423.425,111.252,436.55,130.981,438.395,153.536z"/>
<polygon points="398.623,251.528 382.969,251.528 382.969,411.385 318.928,411.385 318.928,427.039 427.156,427.039 
	427.156,411.385 398.623,411.385 "/>
<rect x="347.459" y="251.532" width="15.654" height="141.686"/>
<path d="M424.982,221.416l-10.016-12.03c-11.736,9.77-26.625,15.152-41.924,15.152c-15.198,0-30.01-5.317-41.709-14.971
	l-9.963,12.073c14.495,11.962,32.846,18.552,51.672,18.552C391.993,240.191,410.439,233.524,424.982,221.416z"/>
<g>
</g>
<g>
</g>
<g>
</g>
<g>
</g>
<g>
</g>
<g>
</g>
<g>
</g>
<g>
</g>
<g>
</g>
<g>
</g>
<g>
</g>
<g>
</g>
<g>
</g>
<g>
</g>
<g>
</g>
</svg>
