<svg xmlns="http://www.w3.org/2000/svg" xmlns:svgjs="http://svgjs.com/svgjs" xmlns:xlink="http://www.w3.org/1999/xlink" width="288" height="288"><svg xmlns="http://www.w3.org/2000/svg" width="288" height="288" enable-background="new 0 0 512 512" viewBox="0 0 512 512"><polygon fill="#f9a610" points=".059 472.346 .059 511.881 15.665 511.881 15.665 487.952 327.788 487.952 327.788 511.881 343.394 511.881 343.394 472.346" class="color000 svgShape"/><path fill="#f9a610" d="M311.142,448.416V0H32.312v448.416h-8.323v15.606h296.517v-15.606H311.142z M295.536,448.416H47.918V15.606h247.617
			V448.416z" class="color000 svgShape"/><path fill="#f9a610" d="M112.199,216.382c-13.119,0-23.792,10.674-23.792,23.792c0,13.12,10.674,23.793,23.792,23.793
			c13.12,0,23.793-10.674,23.793-23.793C135.992,227.056,125.318,216.382,112.199,216.382z M112.199,248.361
			c-4.514,0-8.186-3.673-8.186-8.187c0-4.513,3.672-8.186,8.186-8.186s8.187,3.673,8.187,8.186
			C120.386,244.689,116.713,248.361,112.199,248.361z" class="color000 svgShape"/><rect width="15.606" height="24.97" x="104.103" y="271.547" fill="#f9a610" class="color000 svgShape"/><rect width="23.929" height="15.606" x="160.285" y="120.688" fill="#f9a610" class="color000 svgShape"/><path fill="#f9a610" d="M496.14 104.264v35.976c0 11.126-9.052 20.179-20.179 20.179-11.127 0-20.18-9.052-20.18-20.179v-35.976c0 0-15.606 0-15.606 0v35.976c0 19.731 16.054 35.785 35.786 35.785 19.731 0 35.785-16.052 35.785-35.785v-35.976H496.14zM479.957 40.497h-7.996c-17.528 0-31.788 14.26-31.788 31.788h15.606c0-8.923 7.259-16.182 16.182-16.182h7.996c8.923 0 16.181 7.259 16.181 16.182v8.187h-96.13v15.606h111.736V72.285C511.745 54.757 497.485 40.497 479.957 40.497zM503.943 184.403c-39.569 0-71.761 32.192-71.761 71.761v31.979h15.606v-31.979c0-28.316 21.068-51.805 48.352-55.615v128.22h-80.957v-17.687h64.505v-71.788h-15.606v56.182h-40.278v-87.09h-95.554v95.554h24.63c3.355 18.563 19.622 32.691 39.137 32.691v-15.606c-10.602 0-19.632-6.859-22.884-16.373h30.444v39.723h96.564v39.897h-48.352v-32.17h-15.606v47.777h79.564V184.403H503.943zM408.197 288.335h-64.342v-8.465h16.186v-15.606h-16.186v-8.323h24.509v-15.606h-24.509v-16.342h24.509v8.018h15.606v-8.018h24.227V288.335z" class="color000 svgShape"/><polygon fill="#f9a610" points="511.941 407.84 432.87 407.84 432.87 423.447 440.18 423.447 440.22 512 455.826 511.993 455.786 423.447 511.941 423.447" class="color000 svgShape"/><path fill="#f9a610" d="M487.762,432.049h-15.606c0,17.528,14.26,31.788,31.788,31.788V448.23C495.019,448.23,487.762,440.971,487.762,432.049z" class="color000 svgShape"/><polygon fill="#f9a610" points="144.676 232.011 144.676 247.617 272.647 247.617 272.647 424.487 71.848 424.487 71.848 247.617 80.171 247.617 80.171 232.011 56.241 232.011 56.241 440.093 288.253 440.093 288.253 232.011" class="color000 svgShape"/><path fill="#f9a610" d="M56.241,24.97v183.112h232.011V24.97H56.241z M272.647,192.476H71.848v-151.9h200.799V192.476z" class="color000 svgShape"/></svg></svg>